<svg xmlns="http://www.w3.org/2000/svg" width="256" height="256" viewBox="0 0 100 100"><rect width="100" height="100" rx="20" fill="#f3f3f3"></rect><path fill="#30363e" d="M25.38 45.51L25.38 45.51Q25.38 47.93 24.28 49.77Q23.18 51.60 21.09 52.59Q19.01 53.59 16.10 53.59L16.10 53.59L12.54 53.59L12.54 62.19L7.21 62.19L7.21 37.81L15.88 37.81Q20.52 37.81 22.95 39.77Q25.38 41.73 25.38 45.51ZM20.02 45.60L20.02 45.60Q20.02 43.63 18.84 42.79Q17.65 41.95 15.29 41.95L15.29 41.95L12.54 41.95L12.54 49.49L15.43 49.49Q17.81 49.49 18.92 48.50Q20.02 47.52 20.02 45.60ZM47.23 62.19L30.77 62.19L30.77 37.81L36.10 37.81L36.10 58.07L47.23 58.07L47.23 62.19ZM69.92 49.81L69.92 49.81Q69.92 55.77 67.14 58.98Q64.35 62.19 59.20 62.19L59.20 62.19L51.60 62.19L51.60 37.81L58.12 37.81Q64.05 37.81 66.98 40.79Q69.92 43.76 69.92 49.81ZM64.55 49.81L64.55 49.81Q64.55 45.71 63.01 43.82Q61.46 41.93 58.03 41.93L58.03 41.93L56.93 41.93L56.93 58.07L58.77 58.07Q64.55 58.07 64.55 49.81ZM92.79 55.23L92.79 55.23Q92.79 58.50 90.55 60.34Q88.31 62.19 84.35 62.19L84.35 62.19L73.84 62.19L73.84 37.81L83.32 37.81Q87.26 37.81 89.29 39.40Q91.33 40.98 91.33 43.94L91.33 43.94Q91.33 46.02 90.13 47.43Q88.94 48.85 86.47 49.38L86.47 49.38Q89.56 49.70 91.17 51.22Q92.79 52.74 92.79 55.23ZM85.96 44.66L85.96 44.66Q85.96 41.77 82.94 41.77L82.94 41.77L79.17 41.77L79.17 47.53L82.98 47.53Q85.96 47.53 85.96 44.66ZM87.42 54.78L87.42 54.78Q87.42 53.19 86.47 52.33Q85.51 51.47 83.68 51.47L83.68 51.47L79.17 51.47L79.17 58.23L83.81 58.23Q87.42 58.23 87.42 54.78Z"></path></svg>