<svg xmlns="http://www.w3.org/2000/svg" version="1.1" style="font-family:Lato, &#x27;Helvetica Neue&#x27;, Helvetica, Arial, sans-serif;font-size:16px;background-color:white;text-rendering:optimizeLegibility;-webkit-font-smoothing:antialiased" width="850" height="600" viewBox="0 0 850 600"><g class="HeaderView"><a href="http://localhost:3030/explorers/new?patch=selection~World~New~Total" style="font-family:&quot;Playfair Display&quot;, Georgia, &quot;Times New Roman&quot;, serif" target="_blank" rel="noopener"><text font-size="20.00" x="15.0" y="31.0" fill="#555"><tspan x="15" y="31">What is the growth in the number of programming languages over time?, 1941 to 2022</tspan></text></a><text font-size="12.80" x="15.0" y="49.2" fill="#666"><tspan x="15" y="49.239999999999995">There are still people alive who were born when there was no such thing as a programming language. This chart shows the rise in the number</tspan><tspan x="15" y="64.6">of languages like C, Python, R, Javascript, Lisp, Haskell and Rust. The data comes from https://pldb.com/languages.csv and is public domain</tspan><tspan x="15" y="79.96">and freely available. The chart was made with Our World In Data&#x27;s Grapher which is open source software available at</tspan><tspan x="15" y="95.32">https://github.com/owid/owid-grapher</tspan></text></g><g class="LineChart"><defs><clipPath id="boundsClip-13)"><rect x="46.288000000000004" y="93.8" width="830" height="896.4"></rect></clipPath></defs><g class="DualAxisView"><g class="HorizontalAxis"><line x1="56.3" y1="540.6" x2="56.3" y2="544.6" stroke="#ccc"></line><line x1="135.9" y1="540.6" x2="135.9" y2="544.6" stroke="#ccc"></line><line x1="224.5" y1="540.6" x2="224.5" y2="544.6" stroke="#ccc"></line><line x1="313" y1="540.6" x2="313" y2="544.6" stroke="#ccc"></line><line x1="401.5" y1="540.6" x2="401.5" y2="544.6" stroke="#ccc"></line><line x1="490" y1="540.6" x2="490" y2="544.6" stroke="#ccc"></line><line x1="578.5" y1="540.6" x2="578.5" y2="544.6" stroke="#ccc"></line><line x1="667" y1="540.6" x2="667" y2="544.6" stroke="#ccc"></line><line x1="773.2" y1="540.6" x2="773.2" y2="544.6" stroke="#ccc"></line><text x="56.3" y="560" fill="#666" text-anchor="middle" font-size="14.4">1941</text><text x="135.9" y="560" fill="#666" text-anchor="middle" font-size="14.4">1950</text><text x="224.5" y="560" fill="#666" text-anchor="middle" font-size="14.4">1960</text><text x="313" y="560" fill="#666" text-anchor="middle" font-size="14.4">1970</text><text x="401.5" y="560" fill="#666" text-anchor="middle" font-size="14.4">1980</text><text x="490" y="560" fill="#666" text-anchor="middle" font-size="14.4">1990</text><text x="578.5" y="560" fill="#666" text-anchor="middle" font-size="14.4">2000</text><text x="667" y="560" fill="#666" text-anchor="middle" font-size="14.4">2010</text><text x="773.2" y="560" fill="#666" text-anchor="middle" font-size="14.4">2022</text></g><g class="VerticalAxis"><text x="51.29" y="440.5" fill="#666" dominant-baseline="middle" text-anchor="end" font-size="14.4">1,000</text><text x="51.29" y="340.2" fill="#666" dominant-baseline="middle" text-anchor="end" font-size="14.4">2,000</text><text x="51.29" y="240" fill="#666" dominant-baseline="middle" text-anchor="end" font-size="14.4">3,000</text><text x="51.29" y="139.8" fill="#666" dominant-baseline="middle" text-anchor="end" font-size="14.4">4,000</text></g><g class="AxisGridLines horizontalLines"><line x1="56.29" y1="440.5" x2="773.24" y2="440.5" stroke="#d3d3d3" stroke-dasharray="3,2"></line><line x1="56.29" y1="340.2" x2="773.24" y2="340.2" stroke="#d3d3d3" stroke-dasharray="3,2"></line><line x1="56.29" y1="240" x2="773.24" y2="240" stroke="#d3d3d3" stroke-dasharray="3,2"></line><line x1="56.29" y1="139.8" x2="773.24" y2="139.8" stroke="#d3d3d3" stroke-dasharray="3,2"></line></g></g><g clip-path="url(#boundsClip-13))"><g class="LineLabels" style="cursor:default"><g class="legendMark"><rect x="773.24" y="111.8" width="61.76" height="12" fill="#fff" opacity="0"></rect><text font-size="12.00" x="777.2" y="121.4" fill="#3C4E66"><tspan x="777.24" y="121.39999999999999">Total</tspan></text></g><g class="legendMark"><rect x="773.24" y="528.6" width="59" height="12" fill="#fff" opacity="0"></rect><text font-size="12.00" x="777.2" y="538.2" fill="#B13507"><tspan x="777.24" y="538.2">New</tspan></text></g></g><g class="Lines"><rect x="56" y="112" width="717" height="429" fill="rgba(255,255,255,0)" opacity="0"></rect><g><path stroke-linecap="round" stroke="#ddd" d="M56 541L74 540L92 540L109 540L118 540L127 540L136 539L145 539L154 538L163 538L171 538L180 537L189 536L198 535L207 533L216 530L225 527L233 526L242 524L251 521L260 518L269 515L278 513L286 509L295 505L304 501L313 495L322 492L331 488L340 484L348 480L357 476L366 472L375 466L384 461L393 457L402 449L410 446L419 442L428 435L437 429L446 420L455 411L463 405L472 395L481 386L490 377L499 368L508 360L517 351L525 345L534 337L543 329L552 319L561 311L570 304L579 294L587 285L596 277L605 271L614 263L623 257L632 249L641 242L649 233L658 225L667 218L676 208L685 199L694 189L702 177L711 165L720 156L729 144L738 134L747 122L756 117L764 115L773 112" fill="none" stroke-width="1"></path></g><g><path stroke-linecap="round" stroke="#ddd" d="M56 541L74 541L92 541L109 541L118 540L127 541L136 540L145 540L154 540L163 540L171 540L180 540L189 540L198 540L207 539L216 539L225 538L233 539L242 539L251 538L260 538L269 538L278 538L286 537L295 537L304 537L313 535L322 538L331 537L340 537L348 537L357 536L366 536L375 535L384 536L393 537L402 533L410 537L419 537L428 534L437 535L446 532L455 532L463 534L472 531L481 532L490 531L499 532L508 533L517 532L525 534L534 533L543 533L552 531L561 533L570 533L579 531L587 531L596 534L605 534L614 533L623 535L632 533L641 533L649 532L658 533L667 534L676 531L685 531L694 531L702 529L711 529L720 531L729 529L738 530L747 529L756 536L764 538L773 538" fill="none" stroke-width="1"></path></g><g><path stroke="#3C4E66" stroke-linecap="round" d="M56 541L74 540L92 540L109 540L118 540L127 540L136 539L145 539L154 538L163 538L171 538L180 537L189 536L198 535L207 533L216 530L225 527L233 526L242 524L251 521L260 518L269 515L278 513L286 509L295 505L304 501L313 495L322 492L331 488L340 484L348 480L357 476L366 472L375 466L384 461L393 457L402 449L410 446L419 442L428 435L437 429L446 420L455 411L463 405L472 395L481 386L490 377L499 368L508 360L517 351L525 345L534 337L543 329L552 319L561 311L570 304L579 294L587 285L596 277L605 271L614 263L623 257L632 249L641 242L649 233L658 225L667 218L676 208L685 199L694 189L702 177L711 165L720 156L729 144L738 134L747 122L756 117L764 115L773 112" fill="none" stroke-width="1.5"></path><g fill="#3C4E66"><circle cx="56" cy="541" r="2"></circle><circle cx="74" cy="540" r="2"></circle><circle cx="92" cy="540" r="2"></circle><circle cx="109" cy="540" r="2"></circle><circle cx="118" cy="540" r="2"></circle><circle cx="127" cy="540" r="2"></circle><circle cx="136" cy="539" r="2"></circle><circle cx="145" cy="539" r="2"></circle><circle cx="154" cy="538" r="2"></circle><circle cx="163" cy="538" r="2"></circle><circle cx="171" cy="538" r="2"></circle><circle cx="180" cy="537" r="2"></circle><circle cx="189" cy="536" r="2"></circle><circle cx="198" cy="535" r="2"></circle><circle cx="207" cy="533" r="2"></circle><circle cx="216" cy="530" r="2"></circle><circle cx="225" cy="527" r="2"></circle><circle cx="233" cy="526" r="2"></circle><circle cx="242" cy="524" r="2"></circle><circle cx="251" cy="521" r="2"></circle><circle cx="260" cy="518" r="2"></circle><circle cx="269" cy="515" r="2"></circle><circle cx="278" cy="513" r="2"></circle><circle cx="286" cy="509" r="2"></circle><circle cx="295" cy="505" r="2"></circle><circle cx="304" cy="501" r="2"></circle><circle cx="313" cy="495" r="2"></circle><circle cx="322" cy="492" r="2"></circle><circle cx="331" cy="488" r="2"></circle><circle cx="340" cy="484" r="2"></circle><circle cx="348" cy="480" r="2"></circle><circle cx="357" cy="476" r="2"></circle><circle cx="366" cy="472" r="2"></circle><circle cx="375" cy="466" r="2"></circle><circle cx="384" cy="461" r="2"></circle><circle cx="393" cy="457" r="2"></circle><circle cx="402" cy="449" r="2"></circle><circle cx="410" cy="446" r="2"></circle><circle cx="419" cy="442" r="2"></circle><circle cx="428" cy="435" r="2"></circle><circle cx="437" cy="429" r="2"></circle><circle cx="446" cy="420" r="2"></circle><circle cx="455" cy="411" r="2"></circle><circle cx="463" cy="405" r="2"></circle><circle cx="472" cy="395" r="2"></circle><circle cx="481" cy="386" r="2"></circle><circle cx="490" cy="377" r="2"></circle><circle cx="499" cy="368" r="2"></circle><circle cx="508" cy="360" r="2"></circle><circle cx="517" cy="351" r="2"></circle><circle cx="525" cy="345" r="2"></circle><circle cx="534" cy="337" r="2"></circle><circle cx="543" cy="329" r="2"></circle><circle cx="552" cy="319" r="2"></circle><circle cx="561" cy="311" r="2"></circle><circle cx="570" cy="304" r="2"></circle><circle cx="579" cy="294" r="2"></circle><circle cx="587" cy="285" r="2"></circle><circle cx="596" cy="277" r="2"></circle><circle cx="605" cy="271" r="2"></circle><circle cx="614" cy="263" r="2"></circle><circle cx="623" cy="257" r="2"></circle><circle cx="632" cy="249" r="2"></circle><circle cx="641" cy="242" r="2"></circle><circle cx="649" cy="233" r="2"></circle><circle cx="658" cy="225" r="2"></circle><circle cx="667" cy="218" r="2"></circle><circle cx="676" cy="208" r="2"></circle><circle cx="685" cy="199" r="2"></circle><circle cx="694" cy="189" r="2"></circle><circle cx="702" cy="177" r="2"></circle><circle cx="711" cy="165" r="2"></circle><circle cx="720" cy="156" r="2"></circle><circle cx="729" cy="144" r="2"></circle><circle cx="738" cy="134" r="2"></circle><circle cx="747" cy="122" r="2"></circle><circle cx="756" cy="117" r="2"></circle><circle cx="764" cy="115" r="2"></circle><circle cx="773" cy="112" r="2"></circle></g></g><g><path stroke="#B13507" stroke-linecap="round" d="M56 541L74 541L92 541L109 541L118 540L127 541L136 540L145 540L154 540L163 540L171 540L180 540L189 540L198 540L207 539L216 539L225 538L233 539L242 539L251 538L260 538L269 538L278 538L286 537L295 537L304 537L313 535L322 538L331 537L340 537L348 537L357 536L366 536L375 535L384 536L393 537L402 533L410 537L419 537L428 534L437 535L446 532L455 532L463 534L472 531L481 532L490 531L499 532L508 533L517 532L525 534L534 533L543 533L552 531L561 533L570 533L579 531L587 531L596 534L605 534L614 533L623 535L632 533L641 533L649 532L658 533L667 534L676 531L685 531L694 531L702 529L711 529L720 531L729 529L738 530L747 529L756 536L764 538L773 538" fill="none" stroke-width="1.5"></path><g fill="#B13507"><circle cx="56" cy="541" r="2"></circle><circle cx="74" cy="541" r="2"></circle><circle cx="92" cy="541" r="2"></circle><circle cx="109" cy="541" r="2"></circle><circle cx="118" cy="540" r="2"></circle><circle cx="127" cy="541" r="2"></circle><circle cx="136" cy="540" r="2"></circle><circle cx="145" cy="540" r="2"></circle><circle cx="154" cy="540" r="2"></circle><circle cx="163" cy="540" r="2"></circle><circle cx="171" cy="540" r="2"></circle><circle cx="180" cy="540" r="2"></circle><circle cx="189" cy="540" r="2"></circle><circle cx="198" cy="540" r="2"></circle><circle cx="207" cy="539" r="2"></circle><circle cx="216" cy="539" r="2"></circle><circle cx="225" cy="538" r="2"></circle><circle cx="233" cy="539" r="2"></circle><circle cx="242" cy="539" r="2"></circle><circle cx="251" cy="538" r="2"></circle><circle cx="260" cy="538" r="2"></circle><circle cx="269" cy="538" r="2"></circle><circle cx="278" cy="538" r="2"></circle><circle cx="286" cy="537" r="2"></circle><circle cx="295" cy="537" r="2"></circle><circle cx="304" cy="537" r="2"></circle><circle cx="313" cy="535" r="2"></circle><circle cx="322" cy="538" r="2"></circle><circle cx="331" cy="537" r="2"></circle><circle cx="340" cy="537" r="2"></circle><circle cx="348" cy="537" r="2"></circle><circle cx="357" cy="536" r="2"></circle><circle cx="366" cy="536" r="2"></circle><circle cx="375" cy="535" r="2"></circle><circle cx="384" cy="536" r="2"></circle><circle cx="393" cy="537" r="2"></circle><circle cx="402" cy="533" r="2"></circle><circle cx="410" cy="537" r="2"></circle><circle cx="419" cy="537" r="2"></circle><circle cx="428" cy="534" r="2"></circle><circle cx="437" cy="535" r="2"></circle><circle cx="446" cy="532" r="2"></circle><circle cx="455" cy="532" r="2"></circle><circle cx="463" cy="534" r="2"></circle><circle cx="472" cy="531" r="2"></circle><circle cx="481" cy="532" r="2"></circle><circle cx="490" cy="531" r="2"></circle><circle cx="499" cy="532" r="2"></circle><circle cx="508" cy="533" r="2"></circle><circle cx="517" cy="532" r="2"></circle><circle cx="525" cy="534" r="2"></circle><circle cx="534" cy="533" r="2"></circle><circle cx="543" cy="533" r="2"></circle><circle cx="552" cy="531" r="2"></circle><circle cx="561" cy="533" r="2"></circle><circle cx="570" cy="533" r="2"></circle><circle cx="579" cy="531" r="2"></circle><circle cx="587" cy="531" r="2"></circle><circle cx="596" cy="534" r="2"></circle><circle cx="605" cy="534" r="2"></circle><circle cx="614" cy="533" r="2"></circle><circle cx="623" cy="535" r="2"></circle><circle cx="632" cy="533" r="2"></circle><circle cx="641" cy="533" r="2"></circle><circle cx="649" cy="532" r="2"></circle><circle cx="658" cy="533" r="2"></circle><circle cx="667" cy="534" r="2"></circle><circle cx="676" cy="531" r="2"></circle><circle cx="685" cy="531" r="2"></circle><circle cx="694" cy="531" r="2"></circle><circle cx="702" cy="529" r="2"></circle><circle cx="711" cy="529" r="2"></circle><circle cx="720" cy="531" r="2"></circle><circle cx="729" cy="529" r="2"></circle><circle cx="738" cy="530" r="2"></circle><circle cx="747" cy="529" r="2"></circle><circle cx="756" cy="536" r="2"></circle><circle cx="764" cy="538" r="2"></circle><circle cx="773" cy="538" r="2"></circle></g></g></g></g></g><g class="SourcesFooter" style="fill:#777"><g style="fill:#777"></g><text font-size="11.20" x="800.7" y="594.0"><tspan x="800.728" y="593.96"><a style="fill: #777;" class="cclogo" href="http://creativecommons.org/licenses/by/4.0/deed.en_US" target="_blank">CC BY</a></tspan></text></g></svg>